<svg width="1826" height="591" viewBox="0 0 1826 591" fill="none" xmlns="http://www.w3.org/2000/svg">
<rect width="1826" height="591" fill="white"/>
<mask id="mask0_1149_28" style="mask-type:luminance" maskUnits="userSpaceOnUse" x="361" y="194" width="203" height="203">
<path d="M563.961 194.266H361.576V396.735H563.961V194.266Z" fill="white"/>
</mask>
<g mask="url(#mask0_1149_28)">
<path d="M526.014 194.266H399.523C378.565 194.266 361.576 211.263 361.576 232.229V358.772C361.576 379.738 378.565 396.735 399.523 396.735H526.014C546.972 396.735 563.961 379.738 563.961 358.772V232.229C563.961 211.263 546.972 194.266 526.014 194.266Z" fill="#3B82F6"/>
<path d="M526.014 194.266H399.523C378.565 194.266 361.576 211.263 361.576 232.229V358.772C361.576 379.738 378.565 396.735 399.523 396.735H526.014C546.972 396.735 563.961 379.738 563.961 358.772V232.229C563.961 211.263 546.972 194.266 526.014 194.266Z" fill="url(#paint0_linear_1149_28)"/>
<path d="M481.742 323.972L510.203 295.5L481.742 267.028" stroke="white" stroke-width="15.0128" stroke-linecap="round" stroke-linejoin="round"/>
<path d="M443.795 267.028L415.334 295.5L443.795 323.972" stroke="white" stroke-width="15.0128" stroke-linecap="round" stroke-linejoin="round"/>
</g>
<path d="M667.208 354.843C659.004 354.843 651.395 353.44 644.379 350.632C637.471 347.716 631.427 343.721 626.245 338.646C621.064 333.463 617.017 327.362 614.103 320.343C611.296 313.216 609.893 305.441 609.893 297.018C609.893 288.596 611.35 280.875 614.264 273.856C617.179 266.837 621.227 260.79 626.408 255.715C631.588 250.532 637.633 246.537 644.542 243.729C651.557 240.921 659.113 239.517 667.208 239.517C675.519 239.517 683.129 240.975 690.037 243.891C697.053 246.698 703.044 250.801 708.01 256.201C712.974 261.6 716.644 268.133 719.019 275.8L697.162 282.603C694.57 275.152 690.685 269.537 685.504 265.757C680.431 261.87 674.386 259.926 667.37 259.926C660.785 259.926 654.903 261.492 649.722 264.623C644.649 267.647 640.655 271.912 637.741 277.42C634.827 282.926 633.369 289.46 633.369 297.018C633.369 304.577 634.773 311.165 637.579 316.779C640.493 322.394 644.487 326.767 649.56 329.9C654.633 332.923 660.462 334.434 667.047 334.434C673.954 334.434 680.161 332.491 685.666 328.603C691.171 324.608 695.273 319.101 697.971 312.082L720.152 317.265C717.778 325.256 713.946 332.059 708.657 337.675C703.367 343.289 697.162 347.555 690.037 350.47C682.913 353.386 675.304 354.843 667.208 354.843ZM769.67 354.843C761.035 354.843 753.264 352.954 746.355 349.174C739.554 345.395 734.104 340.049 730.002 333.139C726.008 326.228 724.011 318.075 724.011 308.68C724.011 299.286 726.063 291.188 730.164 284.384C734.266 277.474 739.824 272.182 746.841 268.511C753.857 264.731 761.682 262.842 770.317 262.842C778.952 262.842 786.724 264.731 793.632 268.511C800.648 272.182 806.208 277.474 810.309 284.384C814.411 291.188 816.461 299.286 816.461 308.68C816.461 318.075 814.356 326.228 810.146 333.139C806.045 340.049 800.432 345.395 793.308 349.174C786.293 352.954 778.413 354.843 769.67 354.843ZM769.67 334.92C773.663 334.92 777.441 334.003 781.003 332.167C784.565 330.223 787.479 327.308 789.746 323.42C792.012 319.425 793.146 314.512 793.146 308.68C793.146 302.849 792.012 297.99 789.746 294.103C787.588 290.215 784.727 287.354 781.165 285.518C777.711 283.575 773.987 282.603 769.993 282.603C766 282.603 762.276 283.575 758.822 285.518C755.476 287.354 752.723 290.215 750.565 294.103C748.406 297.99 747.326 302.849 747.326 308.68C747.326 314.512 748.352 319.425 750.402 323.42C752.454 327.308 755.152 330.223 758.498 332.167C761.952 334.003 765.676 334.92 769.67 334.92ZM860.902 354.843C853.023 354.843 846.061 352.899 840.016 349.013C833.971 345.018 829.222 339.563 825.768 332.653C822.315 325.634 820.587 317.697 820.587 308.843C820.587 299.88 822.315 291.943 825.768 285.033C829.222 278.122 833.971 272.722 840.016 268.835C846.061 264.84 853.023 262.842 860.902 262.842C868.026 262.842 874.234 264.678 879.521 268.349C884.808 272.02 888.644 277.096 891.017 283.575V233.848H914.007V353.71H902.998C899.329 353.71 896.415 352.63 894.255 350.47C892.094 348.202 891.017 345.233 891.017 341.561V333.949C888.644 340.536 884.808 345.665 879.521 349.336C874.234 353.008 868.026 354.843 860.902 354.843ZM867.378 334.92C871.587 334.92 875.473 333.895 879.036 331.843C882.597 329.792 885.456 326.822 887.617 322.935C889.884 319.047 891.017 314.35 891.017 308.843C891.017 303.228 889.884 298.476 887.617 294.589C885.456 290.701 882.597 287.786 879.036 285.842C875.473 283.791 871.587 282.765 867.378 282.765C863.385 282.765 859.553 283.791 855.883 285.842C852.321 287.786 849.406 290.701 847.14 294.589C844.981 298.476 843.902 303.228 843.902 308.843C843.902 314.35 844.981 319.047 847.14 322.935C849.406 326.822 852.321 329.792 855.883 331.843C859.553 333.895 863.385 334.92 867.378 334.92ZM970.635 354.843C963.724 354.843 957.303 353.764 951.368 351.604C945.54 349.444 940.409 346.367 935.987 342.372C931.666 338.376 928.266 333.625 925.786 328.118C923.408 322.503 922.225 316.294 922.225 309.49C922.225 302.471 923.464 296.101 925.949 290.377C928.428 284.655 931.883 279.741 936.31 275.638C940.733 271.534 945.807 268.403 951.53 266.243C957.247 263.976 963.294 262.842 969.663 262.842C975.057 262.842 980.132 263.598 984.883 265.109C989.629 266.513 993.788 268.565 997.35 271.264C1001.02 273.856 1003.83 276.988 1005.77 280.659C1007.82 284.33 1008.85 288.326 1008.85 292.645C1008.85 298.26 1007.23 302.957 1003.99 306.737C1000.75 310.516 996.43 313.54 991.036 315.808C985.743 317.967 979.915 319.479 973.549 320.343C967.179 321.099 960.921 321.369 954.768 321.152C953.797 321.045 952.664 320.991 951.368 320.991C950.073 320.991 948.884 320.991 947.806 320.991C946.834 320.883 946.187 320.828 945.863 320.828C946.511 323.744 948.019 326.444 950.397 328.927C952.876 331.412 955.901 333.355 959.464 334.758C963.025 336.054 966.855 336.702 970.959 336.702C974.521 336.702 977.972 336.109 981.321 334.92C984.666 333.732 987.742 332.113 990.55 330.061C993.464 327.901 995.837 325.58 997.674 323.096L1013.38 334.92C1009.92 339.456 1005.93 343.235 1001.4 346.258C996.864 349.174 992.007 351.334 986.826 352.738C981.645 354.141 976.246 354.843 970.635 354.843ZM955.578 304.793C959.139 304.793 962.702 304.631 966.263 304.307C969.932 303.983 973.276 303.39 976.302 302.526C979.429 301.554 981.913 300.258 983.75 298.639C985.693 296.91 986.664 294.751 986.664 292.159C986.664 289.999 985.905 288.11 984.397 286.49C982.99 284.762 981.048 283.413 978.569 282.441C976.191 281.361 973.438 280.821 970.312 280.821C965.342 280.821 960.921 281.955 957.035 284.223C953.255 286.49 950.285 289.46 948.13 293.131C945.97 296.695 944.78 300.42 944.568 304.307C945.863 304.415 947.482 304.524 949.425 304.631C951.368 304.739 953.417 304.793 955.578 304.793ZM1100.51 279.849C1099.43 276.717 1097.97 273.964 1096.13 271.588C1094.41 269.105 1092.3 266.999 1089.82 265.271C1087.45 263.544 1084.74 262.248 1081.72 261.384C1078.81 260.412 1075.57 259.926 1072.01 259.926C1065.43 259.926 1059.54 261.492 1054.36 264.623C1049.29 267.755 1045.3 272.074 1042.38 277.581C1039.57 283.089 1038.17 289.567 1038.17 297.018C1038.17 304.685 1039.57 311.326 1042.38 316.941C1045.3 322.557 1049.4 326.93 1054.69 330.061C1060.08 333.193 1066.4 334.758 1073.63 334.758C1077.84 334.758 1081.72 333.949 1085.29 332.329C1088.85 330.709 1091.98 328.603 1094.68 326.012C1097.49 323.42 1099.7 320.505 1101.32 317.265C1103.04 314.026 1104.23 310.84 1104.88 307.709H1067.96V289.73H1127.87V353.71H1107.79V325.04L1109.41 324.23C1109.19 326.066 1108.55 328.279 1107.47 330.871C1106.39 333.463 1104.82 336.162 1102.77 338.97C1100.72 341.67 1098.13 344.261 1095 346.745C1091.98 349.12 1088.42 351.064 1084.31 352.576C1080.21 354.088 1075.57 354.843 1070.39 354.843C1062.84 354.843 1055.71 353.44 1049.02 350.632C1042.32 347.824 1036.39 343.884 1031.21 338.808C1026.13 333.625 1022.09 327.524 1019.07 320.505C1016.15 313.378 1014.69 305.549 1014.69 297.018C1014.69 288.488 1016.15 280.713 1019.07 273.694C1022.09 266.675 1026.19 260.628 1031.37 255.553C1036.66 250.37 1042.76 246.428 1049.67 243.729C1056.68 240.921 1064.24 239.517 1072.33 239.517C1084.42 239.517 1094.95 242.271 1103.91 247.778C1112.87 253.285 1119.23 261.276 1123.01 271.75L1100.51 279.849ZM1198.55 341.561V263.976H1221.54V353.71H1210.69C1207.02 353.71 1204.05 352.63 1201.78 350.47C1199.62 348.202 1198.55 345.233 1198.55 341.561ZM1170.7 354.843C1163.57 354.843 1157.37 353.331 1152.08 350.308C1146.9 347.284 1142.91 342.911 1140.1 337.188C1137.29 331.465 1135.89 324.554 1135.89 316.455V263.976H1158.55V312.568C1158.55 319.803 1160.39 325.418 1164.06 329.413C1167.73 333.3 1172.54 335.244 1178.47 335.244C1182.57 335.244 1186.13 334.218 1189.16 332.167C1192.18 330.007 1194.5 327.091 1196.12 323.42C1197.74 319.749 1198.55 315.592 1198.55 310.948L1202.11 315.645C1201.78 324.608 1200.11 332.005 1197.09 337.836C1194.17 343.667 1190.4 347.987 1185.76 350.794C1181.22 353.494 1176.2 354.843 1170.7 354.843ZM1235.48 353.71V263.976H1258.47V353.71H1235.48ZM1247.14 253.123C1242.61 253.123 1238.83 251.773 1235.81 249.074C1232.78 246.266 1231.27 242.811 1231.27 238.708C1231.27 234.604 1232.78 231.149 1235.81 228.341C1238.83 225.534 1242.61 224.13 1247.14 224.13C1251.67 224.13 1255.45 225.534 1258.47 228.341C1261.49 231.149 1263 234.604 1263 238.708C1263 242.811 1261.49 246.266 1258.47 249.074C1255.45 251.773 1251.67 253.123 1247.14 253.123ZM1307.42 354.843C1299.54 354.843 1292.57 352.899 1286.53 349.013C1280.48 345.018 1275.74 339.563 1272.28 332.653C1268.82 325.634 1267.1 317.697 1267.1 308.843C1267.1 299.88 1268.82 291.943 1272.28 285.033C1275.74 278.122 1280.48 272.722 1286.53 268.835C1292.57 264.84 1299.54 262.842 1307.42 262.842C1314.53 262.842 1320.74 264.678 1326.03 268.349C1331.32 272.02 1335.15 277.096 1337.53 283.575V233.848H1360.52V353.71H1349.51C1345.84 353.71 1342.93 352.63 1340.77 350.47C1338.61 348.202 1337.53 345.233 1337.53 341.561V333.949C1335.15 340.536 1331.32 345.665 1326.03 349.336C1320.74 353.008 1314.53 354.843 1307.42 354.843ZM1313.89 334.92C1318.1 334.92 1321.99 333.895 1325.55 331.843C1329.11 329.792 1331.97 326.822 1334.13 322.935C1336.4 319.047 1337.53 314.35 1337.53 308.843C1337.53 303.228 1336.4 298.476 1334.13 294.589C1331.97 290.701 1329.11 287.786 1325.55 285.842C1321.99 283.791 1318.1 282.765 1313.89 282.765C1309.9 282.765 1306.07 283.791 1302.39 285.842C1298.83 287.786 1295.92 290.701 1293.65 294.589C1291.49 298.476 1290.42 303.228 1290.42 308.843C1290.42 314.35 1291.49 319.047 1293.65 322.935C1295.92 326.822 1298.83 329.792 1302.39 331.843C1306.07 333.895 1309.9 334.92 1313.89 334.92ZM1417.15 354.843C1410.24 354.843 1403.82 353.764 1397.88 351.604C1392.05 349.444 1386.92 346.367 1382.5 342.372C1378.18 338.376 1374.78 333.625 1372.3 328.118C1369.92 322.503 1368.74 316.294 1368.74 309.49C1368.74 302.471 1369.98 296.101 1372.46 290.377C1374.94 284.655 1378.39 279.741 1382.82 275.638C1387.25 271.534 1392.32 268.403 1398.04 266.243C1403.76 263.976 1409.8 262.842 1416.18 262.842C1421.57 262.842 1426.64 263.598 1431.4 265.109C1436.14 266.513 1440.3 268.565 1443.87 271.264C1447.53 273.856 1450.34 276.988 1452.28 280.659C1454.33 284.33 1455.35 288.326 1455.35 292.645C1455.35 298.26 1453.74 302.957 1450.5 306.737C1447.27 310.516 1442.94 313.54 1437.55 315.808C1432.25 317.967 1426.42 319.479 1420.07 320.343C1413.69 321.099 1407.44 321.369 1401.28 321.152C1400.31 321.045 1399.18 320.991 1397.88 320.991C1396.58 320.991 1395.4 320.991 1394.32 320.991C1393.35 320.883 1392.7 320.828 1392.38 320.828C1393.02 323.744 1394.53 326.444 1396.91 328.927C1399.39 331.412 1402.41 333.355 1405.98 334.758C1409.54 336.054 1413.37 336.702 1417.47 336.702C1421.04 336.702 1424.48 336.109 1427.84 334.92C1431.17 333.732 1434.26 332.113 1437.07 330.061C1439.98 327.901 1442.35 325.58 1444.18 323.096L1459.89 334.92C1456.43 339.456 1452.44 343.235 1447.91 346.258C1443.38 349.174 1438.52 351.334 1433.34 352.738C1428.15 354.141 1422.76 354.843 1417.15 354.843ZM1402.09 304.793C1405.65 304.793 1409.21 304.631 1412.78 304.307C1416.44 303.983 1419.79 303.39 1422.81 302.526C1425.94 301.554 1428.43 300.258 1430.27 298.639C1432.21 296.91 1433.18 294.751 1433.18 292.159C1433.18 289.999 1432.42 288.11 1430.91 286.49C1429.51 284.762 1427.56 283.413 1425.08 282.441C1422.71 281.361 1419.95 280.821 1416.82 280.821C1411.85 280.821 1407.44 281.955 1403.55 284.223C1399.77 286.49 1396.8 289.46 1394.64 293.131C1392.49 296.695 1391.29 300.42 1391.08 304.307C1392.38 304.415 1394 304.524 1395.94 304.631C1397.88 304.739 1399.93 304.793 1402.09 304.793Z" fill="url(#paint1_linear_1149_28)"/>
<defs>
<linearGradient id="paint0_linear_1149_28" x1="462.768" y1="396.735" x2="489.71" y2="197.917" gradientUnits="userSpaceOnUse">
<stop stop-color="#38BDF8"/>
<stop offset="1" stop-color="#3B82F6"/>
</linearGradient>
<linearGradient id="paint1_linear_1149_28" x1="634.042" y1="247.414" x2="1465.49" y2="260.752" gradientUnits="userSpaceOnUse">
<stop stop-color="#020617"/>
<stop offset="0.33" stop-color="#172554"/>
<stop offset="0.66" stop-color="#020617"/>
<stop offset="1" stop-color="#172554"/>
</linearGradient>
</defs>
</svg>
